<svg width="20" height="20" viewBox="0 0 20 20" fill="none" xmlns="http://www.w3.org/2000/svg">
<path d="M19 0H5C4.73478 0 4.48043 0.131696 4.29289 0.366117C4.10536 0.600537 4 0.918479 4 1.25V5H9V2.5H15V15H19C19.2652 15 19.5196 14.8683 19.7071 14.6339C19.8946 14.3995 20 14.0815 20 13.75V1.25C20 0.918479 19.8946 0.600537 19.7071 0.366117C19.5196 0.131696 19.2652 0 19 0ZM7.25 4.02344C7.25 4.11668 7.22037 4.2061 7.16762 4.27203C7.11488 4.33796 7.04334 4.375 6.96875 4.375H6.03125C5.95666 4.375 5.88512 4.33796 5.83238 4.27203C5.77963 4.2061 5.75 4.11668 5.75 4.02344V2.85156C5.75 2.75832 5.77963 2.6689 5.83238 2.60297C5.88512 2.53704 5.95666 2.5 6.03125 2.5H6.96875C7.04334 2.5 7.11488 2.53704 7.16762 2.60297C7.22037 2.6689 7.25 2.75832 7.25 2.85156V4.02344ZM18.25 12.1484C18.25 12.2417 18.2204 12.3311 18.1676 12.397C18.1149 12.463 18.0433 12.5 17.9688 12.5H17.0312C16.9567 12.5 16.8851 12.463 16.8324 12.397C16.7796 12.3311 16.75 12.2417 16.75 12.1484V10.9766C16.75 10.8833 16.7796 10.7939 16.8324 10.728C16.8851 10.662 16.9567 10.625 17.0312 10.625H17.9688C18.0433 10.625 18.1149 10.662 18.1676 10.728C18.2204 10.7939 18.25 10.8833 18.25 10.9766V12.1484ZM18.25 8.08594C18.25 8.17918 18.2204 8.2686 18.1676 8.33453C18.1149 8.40046 18.0433 8.4375 17.9688 8.4375H17.0312C16.9567 8.4375 16.8851 8.40046 16.8324 8.33453C16.7796 8.2686 16.75 8.17918 16.75 8.08594V6.91406C16.75 6.82082 16.7796 6.7314 16.8324 6.66547C16.8851 6.59954 16.9567 6.5625 17.0312 6.5625H17.9688C18.0433 6.5625 18.1149 6.59954 18.1676 6.66547C18.2204 6.7314 18.25 6.82082 18.25 6.91406V8.08594ZM18.25 4.02344C18.25 4.11668 18.2204 4.2061 18.1676 4.27203C18.1149 4.33796 18.0433 4.375 17.9688 4.375H17.0312C16.9567 4.375 16.8851 4.33796 16.8324 4.27203C16.7796 4.2061 16.75 4.11668 16.75 4.02344V2.85156C16.75 2.75832 16.7796 2.6689 16.8324 2.60297C16.8851 2.53704 16.9567 2.5 17.0312 2.5H17.9688C18.0433 2.5 18.1149 2.53704 18.1676 2.60297C18.2204 2.6689 18.25 2.75832 18.25 2.85156V4.02344ZM13 6.25H1C0.734784 6.25 0.48043 6.3817 0.292893 6.61612C0.105357 6.85054 0 7.16848 0 7.5L0 18.75C0 19.0815 0.105357 19.3995 0.292893 19.6339C0.48043 19.8683 0.734784 20 1 20H13C13.2652 20 13.5196 19.8683 13.7071 19.6339C13.8946 19.3995 14 19.0815 14 18.75V7.5C14 7.16848 13.8946 6.85054 13.7071 6.61612C13.5196 6.3817 13.2652 6.25 13 6.25ZM3 8.75C3.19778 8.75 3.39112 8.82331 3.55557 8.96066C3.72002 9.09801 3.84819 9.29324 3.92388 9.52165C3.99957 9.75005 4.01937 10.0014 3.98079 10.2439C3.9422 10.4863 3.84696 10.7091 3.70711 10.8839C3.56725 11.0587 3.38907 11.1778 3.19509 11.226C3.00111 11.2742 2.80004 11.2495 2.61732 11.1549C2.43459 11.0602 2.27841 10.9 2.16853 10.6945C2.05865 10.4889 2 10.2472 2 10C2 9.66848 2.10536 9.35054 2.29289 9.11612C2.48043 8.8817 2.73478 8.75 3 8.75ZM12 17.5H2V16.25L4 13.75L5 15L9 10L12 13.75V17.5Z" fill="black"/>
</svg>
